<svg height="464pt" viewBox="0 0 464.00008 464" width="464pt" xmlns="http://www.w3.org/2000/svg"><g fill="#5eac24"><path d="m424 448h-56c-13.253906 0-24-10.746094-24-24v-48c0-4.417969-3.582031-8-8-8h-48v-16h48c13.253906 0 24 10.746094 24 24v48c0 4.417969 3.582031 8 8 8h56zm0 0"/><path d="m336 144h-48v-16h48c4.417969 0 8-3.582031 8-8v-72c0-13.253906 10.746094-24 24-24h56v16h-56c-4.417969 0-8 3.582031-8 8v72c0 13.253906-10.746094 24-24 24zm0 0"/><path d="m288 224h136v16h-136zm0 0"/></g><path d="m144 232c79.527344 0 144-25.070312 144-56v-120c0 30.929688-64.472656 56-144 56s-144-25.070312-144-56v120c0 30.929688 64.472656 56 144 56zm0 0" fill="#9bc9ff"/><path d="m144 232c-79.527344 0-144-25.070312-144-56v112c0 30.929688 64.472656 56 144 56s144-25.070312 144-56v-112c0 30.929688-64.472656 56-144 56zm0 0" fill="#57a4ff"/><path d="m144 344c-79.527344 0-144-25.070312-144-56v120c0 30.929688 64.472656 56 144 56s144-25.070312 144-56v-120c0 30.929688-64.472656 56-144 56zm0 0" fill="#2488ff"/><path d="m288 56c0-30.929688-64.472656-56-144-56s-144 25.070312-144 56 64.472656 56 144 56 144-25.070312 144-56zm0 0" fill="#bddbff"/><path d="m288 56c0 30.960938-64.480469 56-144 56s-144-25.039062-144-56c-.0078125-2.738281.507812-5.453125 1.519531-8 9.839844 27.121094 69.921875 48 142.480469 48s132.640625-20.878906 142.480469-48c1.011719 2.546875 1.527343 5.261719 1.519531 8zm0 0" fill="#57a4ff"/><path d="m464 232c0 13.253906-10.746094 24-24 24s-24-10.746094-24-24 10.746094-24 24-24 24 10.746094 24 24zm0 0" fill="#b2fa09"/><path d="m464 440c0 13.253906-10.746094 24-24 24s-24-10.746094-24-24 10.746094-24 24-24 24 10.746094 24 24zm0 0" fill="#b2fa09"/><path d="m464 32c0 13.253906-10.746094 24-24 24s-24-10.746094-24-24 10.746094-24 24-24 24 10.746094 24 24zm0 0" fill="#b2fa09"/><path d="m288 160v16c0 30.960938-64.480469 56-144 56s-144-25.039062-144-56v-16c0 30.960938 64.480469 56 144 56s144-25.039062 144-56zm0 0" fill="#2488ff"/><path d="m288 272v16c0 30.960938-64.480469 56-144 56s-144-25.039062-144-56v-16c0 30.960938 64.480469 56 144 56s144-25.039062 144-56zm0 0" fill="#006df0"/><path d="m288 392v16c0 30.960938-64.480469 56-144 56s-144-25.039062-144-56v-16c0 30.960938 64.480469 56 144 56s144-25.039062 144-56zm0 0" fill="#006df0"/><path d="m432 24h16v16h-16zm0 0" fill="#ed1c24"/><path d="m432 224h16v16h-16zm0 0" fill="#ed1c24"/><path d="m432 432h16v16h-16zm0 0" fill="#ed1c24"/></svg>