<svg id="Layer_1" enable-background="new 0 0 512 512" height="512" viewBox="0 0 512 512" width="512" xmlns="http://www.w3.org/2000/svg"><g clip-rule="evenodd" fill-rule="evenodd"><g><g><path d="m306.385 182.319c0 41.689-150.975 41.689-150.975 0s33.8-75.485 75.49-75.485c41.689-.001 75.485 33.796 75.485 75.485z" fill="#66d4f1"/><path d="m196.011 51.838c0 19.269 15.62 34.889 34.889 34.889 19.27 0 34.89-15.62 34.89-34.889 0-19.264-15.62-34.884-34.89-34.884-19.269 0-34.889 15.62-34.889 34.884z" fill="#efc7a4"/></g><g><path d="m495.408 182.319c0 41.689-150.975 41.689-150.975 0s33.8-75.485 75.49-75.485c41.689-.001 75.485 33.796 75.485 75.485z" fill="#b3a4ee"/><path d="m385.033 51.838c0 19.269 15.62 34.889 34.889 34.889 19.27 0 34.89-15.62 34.89-34.889 0-19.264-15.62-34.884-34.89-34.884-19.269 0-34.889 15.62-34.889 34.884z" fill="#efc7a4"/></g><g><path d="m290.522 77.965c0 19.27 15.62 34.889 34.889 34.889s34.889-15.619 34.889-34.889c0-19.264-15.62-34.884-34.889-34.884s-34.889 15.62-34.889 34.884z" fill="#efc7a4"/><path d="m400.897 208.445c0 41.689-150.975 41.689-150.975 0s33.801-75.485 75.49-75.485 75.485 33.797 75.485 75.485z" fill="#f76c82"/></g></g><g><g><path d="m146.581 309.386c-31.994 15.673-64.286 30.73-96.482 45.981l45.439 108.882 66.832-32.556c9.663-4.707 19.534-5.555 29.859-2.566l70.904 20.53c22.469 6.506 50.289-5.449 71.194-13.523l133.005-51.367c35.024-13.526 43.459-83.816-39.257-59.534l-94.893 27.857c-2.761-10-10.598-18.347-21.292-21.204l-64.289-17.175c-43.817-31.024-66.11-22.428-101.02-5.325z" fill="#efc7a4"/><path d="m333.25 368.817-143.726-38.397c-4.282 16.029 5.329 32.647 21.358 36.929l85.438 22.825c16.028 4.282 32.647-5.329 36.93-21.357z" fill="#d5a889"/></g><path d="m127.75 480.007-34.16 13.96c-7.411 3.029-15.926-.54-18.962-7.949-18.977-46.301-37.954-92.602-56.93-138.903-3.069-7.487.466-15.92 7.957-18.981l34.16-13.96c7.411-3.029 15.926.54 18.962 7.949 18.977 46.301 37.954 92.602 56.93 138.903 3.068 7.487-.467 15.92-7.957 18.981z" fill="#cad0d7"/></g></g></svg>