<svg clip-rule="evenodd" fill-rule="evenodd" height="512" image-rendering="optimizeQuality" shape-rendering="geometricPrecision" text-rendering="geometricPrecision" viewBox="0 0 7.11111 7.11111" width="512" xmlns="http://www.w3.org/2000/svg" xmlns:xlink="http://www.w3.org/1999/xlink"><linearGradient id="id0" gradientUnits="userSpaceOnUse" x1=".002" x2="7.11" y1="3.556" y2="3.556"><stop offset="0" stop-color="#ff7b02"/><stop offset="1" stop-color="#ff0600"/></linearGradient><g id="Layer_x0020_1"><path d="m2.00497 3.11394c-.0428976 0-.0820472-.0285984-.0937087-.0717795-.0734409-.271689-.0735787-.560035-.0001378-.833949.0733031-.273354.217268-.522831.416488-.721634.0378976-.0378976.0993976-.0378976.137441.0001378l.29765.297787c.0183268.0183268.0284567.0430354.0284567.069-.0001378.0258228-.0104134.0506732-.028878.0688583-.124114.122728-.210465.272524-.256697.445228-.045811.170764-.0455354.349571.00055512.516862.00694094.0251299.00347244.0517835-.00944094.0744134-.0130512.0224921-.0344291.0388701-.0595551.0455354l-.407323.106622c-.00833071.00180315-.0166575.00291732-.0248504.00291732zm4.60067 2.56446h-2.41521l.38539.38539c.0887087.0887126.118563.197559.0798268.291122-.0402638.0969016-.142307.152437-.28002.152437h-1.64777c-.13328 0-.232402-.0548386-.271965-.15035-.0387362-.0937087-.00874803-.206024.0785787-.293209l.38539-.38539h-2.41439c-.277937 0-.503949-.226154-.503949-.503949v-.625862l-.00000394-.00026378.00000394-.00026378-.00000394-3.44034c0-.277941.226154-.503949.503949-.503949l6.10017-.00000787c.277937 0 .503949.226154.503949.503949l.00000394 3.44057v.00004724.00004724.625933c0 .277937-.226154.504091-.503953.504091zm-2.69009 0h-.720799l-.522831.522835c-.032622.0324843-.0428976.0656654-.036374.0814921.00625197.0151299.0372087.0302677.0924606.0302677l1.64776-.00000394c.0596969 0 .0939843-.0168031.100374-.0324882.00611024-.0145748-.005-.0465079-.0377598-.0792677l-.522835-.522835zm-3.41007-4.88027c-.17076 0-.309587.138969-.309587.309587l-.00000394 3.34343 6.71934.00000394.00000394-3.34343c0-.170764-.138969-.309591-.309587-.309591l-6.10017-.00000394zm-.309591 3.84738v.528803c0 .17076.138969.309587.309587.309587h6.10017c.17076 0 .309587-.138969.309587-.309587v-.528803h-6.71934zm3.79435.516449h-.869488c-.0537283 0-.097185-.0434528-.097185-.097185 0-.0537283.0434528-.0971811.097185-.0971811l.869488.00000394c.0537283 0 .097185.0434528.097185.0971811 0 .0537323-.0434567.0971811-.097185.0971811zm-1.81603-3.74965h-1.54253c-.0537283 0-.0971811-.0434488-.0971811-.0971811s.0434488-.0971811.0971811-.0971811l1.54253.00000394c.0537244 0 .0971811.0434488.0971811.0971811s-.0434567.0971772-.0971811.0971772zm4.30524 0h-1.54253c-.0537244 0-.0971811-.0434488-.0971811-.0971811s.0434528-.0971811.0971811-.0971811l1.54267.00000394c.0537244 0 .0971811.0434488.0971811.0971811s-.0435945.0971772-.0973228.0971772zm-4.30524 2.74868h-1.54253c-.0537283 0-.0971811-.0434488-.0971811-.0971811s.0434488-.0971811.0971811-.0971811l1.54253.00000394c.0537244 0 .0971811.0434528.0971811.0971811 0 .0537323-.0434567.0971772-.0971811.0971772zm4.30524 0h-1.54253c-.0537244 0-.0971811-.0434488-.0971811-.0971811s.0434528-.0971811.0971811-.0971811l1.54267.00000394c.0537244 0 .0971811.0434528.0971811.0971811 0 .0537323-.0435945.0971772-.0973228.0971772zm-3.16502-1.47976c-.17176-.0620315-.294878-.226689-.294878-.419563 0-.24587.200051-.445921.445921-.445921.245866 0 .445917.200051.445917.445921 0 .192874-.123122.357535-.294878.419563.290256.0483268.542811.233417.676555.49426.0590315-.088878.103843-.18774.132272-.293811.0452559-.168957.0452559-.346795.0001378-.514362-.00680315-.0249921-.00319291-.0516457.00971654-.0739961.0129134-.0223543.0342913-.0387323.0592795-.0452598l.407185-.107315c.0517835-.0136024.104815.0170787.118701.0688583.0726063.271689.0723307.559067-.00055512.831449-.111201.41524-.377476.762173-.749815.977083-.247811.143272-.522972.216295-.801878.216295-.139799 0-.280433-.0183307-.419126-.0555315-.414126-.110925-.760783-.37678-.976248-.748429-.0129134-.0223543-.0165197-.0488701-.00985433-.0738543.00666142-.0249882.0229055-.0462323.0452598-.0591417l.364563-.210465c.0463701-.0267953.10565-.0109685.132583.0353976.0104291.0179567.0213504.0355118.032752.0526535.133839-.260618.386307-.445531.67639-.493831zm.151043-.670984c-.138693 0-.251563.112866-.251563.251559s.11287.251559.251563.251559c.138689 0 .251559-.112866.251559-.251559s-.112874-.251559-.251559-.251559zm-.25198 1.77561c-.0185512-.0040315-.0370669-.00851181-.0555315-.0134528-.0340787-.00912598-.0676142-.0197205-.100524-.0317283l-.00174409-.00064173c-.00290157-.00106299-.00580315-.00214173-.00869685-.00322441l-.00701969-.00266142-.00236614-.00090551c-.222248-.0853898-.411917-.234441-.548106-.431055l-.197.113563c.191028.28363.474236.486457.806874.575587.364984.0977362.746346.047622 1.07357-.141331.327217-.188945.561421-.494091.659157-.859075.055811-.208102.0631693-.426205.0223543-.636531l-.219626.0578898c.0312323.17187.0241535.349713-.0215197.519913-.0688622.25685-.218063.478402-.426327.636831l-.00039764.00030315c-.00240551.00182677-.00481102.00364567-.00723228.00545669-.0971102.0730394-.203933.130102-.316524.170051-.00263386.00094095-.00526772.00186614-.00790945.0027874l-.0028189.00097638c-.200756.0695197-.416008.0836181-.626898.0397362l-.00481496-.00100787-.00690157-.00148031zm-.436756-.444657c.0805709.0776024.173496.140732.274949.187091l.00300394.00136614.00467717.0021063c.0477244.0212598.0974488.0388976.148854.0526654.0544409.0145906.109394.0244724.16439.029752.00291339.00027559.00582283.00055118.00874016.00080315l.00438189.00037008c.0893898.00730315.178583.00241339.265323-.0140236l.00233071-.00044095c.00375984-.00072047.00751575-.00148031.0112677-.00224803.103319-.0212244.203673-.0591969.297685-.113472.0677677-.039122.129843-.0853425.185449-.137638l.00285039-.00269291.00368898-.00352756c-.105933-.284307-.381642-.478378-.688717-.478378-.307232 0-.582949.194083-.688874.478268zm1.63277-1.16644c-.0334567 0-.0660787-.0173543-.0841299-.048311-.133417-.229346-.347492-.393445-.602657-.461748-.256697-.0687165-.524638-.0334567-.754539.0994016-.0223543.0129134-.0488701.0163819-.0737165.00971654-.0248543-.00666535-.0460906-.0229055-.0590039-.0452598l-.210465-.364563c-.0267953-.0465079-.0109646-.105925.0355433-.13272.372339-.215047.806181-.272244 1.22156-.160902.416346.111476.763559.378311.977909.751205.0129134.0224921.0163819.0491457.00944094.0739961-.00680315.0249882-.0233228.0462323-.045811.059l-.366236.207689c-.0151299.00832677-.0316496.0124961-.0478937.0124961zm-.946122-.73885c.103287 0 .207134.0136063.309591.0410945.274047.0734449.508394.239067.66874.470634l.197972-.112311c-.190197-.284323-.473827-.487571-.808126-.577114-.333744-.0894055-.681098-.055252-.988189.0956496l.113701.196862c.159791-.0762165.332083-.114815.506311-.114815zm-1.06482.259055c-.140772.161598-.243646.354571-.299594.56337-.0560866.209492-.0634449.428567-.0219331.639031l.219626-.0574764c-.0319291-.172008-.0248504-.350823.0212441-.522835.0466457-.174091.127583-.329028.241146-.46161l-.160488-.16048z" fill="url(#id0)"/></g></svg>