<svg width="28" height="28" viewBox="0 0 28 28" fill="none" xmlns="http://www.w3.org/2000/svg">
<path fill-rule="evenodd" clip-rule="evenodd" d="M19.6004 1C19.6004 0.447715 19.1527 0 18.6004 0H9.40044C8.84815 0 8.40044 0.447716 8.40044 1V7.39941C8.40044 7.9517 7.95272 8.39941 7.40044 8.39941H1C0.447716 8.39941 4.26288e-07 8.84713 4.02147e-07 9.39941L0 18.5994C-2.41413e-08 19.1517 0.447715 19.5994 0.999999 19.5994H7.40044C7.95272 19.5994 8.40044 20.0471 8.40044 20.5994V27C8.40044 27.5523 8.84815 28 9.40044 28H18.6004C19.1527 28 19.6004 27.5523 19.6004 27V20.5994C19.6004 20.0471 20.0482 19.5994 20.6004 19.5994H27C27.5523 19.5994 28 19.1517 28 18.5994V9.39941C28 8.84713 27.5523 8.39941 27 8.39941H20.6004C20.0482 8.39941 19.6004 7.9517 19.6004 7.39941V1Z" fill="#03E7CB"/>
</svg>
