<svg width="80" height="80" viewBox="0 0 80 80" fill="none" xmlns="http://www.w3.org/2000/svg">
<rect width="80" height="80" rx="40" fill="#6268FB"/>
<path d="M40.5672 59.9497H42.0672V61.4497C42.0672 63.3915 42.3598 64.5914 42.7262 65.2794C43.0524 65.8919 43.4142 66.0776 43.7983 66.1279C44.2846 66.1915 45.0275 66.0558 46.0348 65.5424C47.0199 65.0405 48.1256 64.2442 49.2763 63.2013C51.5769 61.1165 53.9088 58.1818 55.6592 55.0988C57.427 51.9849 58.5 48.8987 58.5 46.4914C58.5 36.1671 49.713 27.8257 40.5672 27.8257C31.4084 27.8257 22.5 36.1802 22.5 46.4914C22.5 51.5459 24.6318 54.8125 27.85 56.8861C31.1578 59.0175 35.7252 59.9497 40.5672 59.9497Z" stroke="white" stroke-width="3"/>
<ellipse cx="35.2872" cy="43.7018" rx="1.73762" ry="2.31683" fill="white"/>
<ellipse cx="46.2921" cy="43.7018" rx="1.73762" ry="2.31683" fill="white"/>
<rect x="39.1486" y="22.0781" width="2.70297" height="5.79208" fill="white"/>
<path fill-rule="evenodd" clip-rule="evenodd" d="M42.6316 14C42.6316 13.4477 42.1838 13 41.6316 13H39.3829C38.8306 13 38.3829 13.4477 38.3829 14V15.1864C38.3829 15.7387 37.9352 16.1864 37.3829 16.1864L36.1966 16.1864C35.6443 16.1864 35.1966 16.6341 35.1966 17.1864L35.1966 19.4351C35.1966 19.9874 35.6443 20.4351 36.1966 20.4351H37.3829C37.9352 20.4351 38.3829 20.8828 38.3829 21.4351V22.6217C38.3829 23.174 38.8306 23.6217 39.3829 23.6217H41.6316C42.1838 23.6217 42.6316 23.174 42.6316 22.6217V21.4351C42.6316 20.8828 43.0793 20.4351 43.6316 20.4351H44.8183C45.3706 20.4351 45.8183 19.9874 45.8183 19.4351V17.1864C45.8183 16.6341 45.3706 16.1864 44.8183 16.1864L43.6316 16.1864C43.0793 16.1864 42.6316 15.7387 42.6316 15.1864V14Z" fill="#03E7CB"/>
</svg>
