<svg width="current" height="current" viewBox="0 0 44 44" fill="none" xmlns="http://www.w3.org/2000/svg">
<path d="M22.0767 0.205078C10.2367 0.205078 0.627441 9.81435 0.627441 21.6544C0.627441 33.4944 10.2367 43.1036 22.0767 43.1036C33.9167 43.1036 43.526 33.4944 43.526 21.6544C43.526 9.81435 33.9167 0.205078 22.0767 0.205078ZM22.0767 6.63986C25.6373 6.63986 28.5115 9.51406 28.5115 13.0746C28.5115 16.6352 25.6373 19.5094 22.0767 19.5094C18.5161 19.5094 15.6419 16.6352 15.6419 13.0746C15.6419 9.51406 18.5161 6.63986 22.0767 6.63986ZM22.0767 37.0978C16.7144 37.0978 11.9741 34.3523 9.20715 30.1912C9.2715 25.9228 17.7869 23.5848 22.0767 23.5848C26.3451 23.5848 34.8819 25.9228 34.9463 30.1912C32.1793 34.3523 27.439 37.0978 22.0767 37.0978Z" fill="current"/>
</svg>
